<svg width="270" height="266" viewBox="0 0 270 266" fill="none" xmlns="http://www.w3.org/2000/svg">
    <mask id="path-1-inside-1_479_768" fill="white">
        <path
            d="M269 133C269 163.271 258.674 192.637 239.727 216.245C220.78 239.854 194.346 256.293 164.793 262.846C135.239 269.399 104.335 265.675 77.1842 252.288C50.0338 238.902 28.2623 216.654 15.4665 189.22C2.67067 161.786 -0.383804 130.808 6.8077 101.403C13.9992 71.9988 31.0064 45.9271 55.0195 27.4957C79.0326 9.06429 108.615 -0.624096 138.879 0.0311629C169.143 0.686421 198.278 11.6461 221.471 31.0996L136 133H269Z" />
    </mask>
    <path
        d="M269 133C269 163.271 258.674 192.637 239.727 216.245C220.78 239.854 194.346 256.293 164.793 262.846C135.239 269.399 104.335 265.675 77.1842 252.288C50.0338 238.902 28.2623 216.654 15.4665 189.22C2.67067 161.786 -0.383804 130.808 6.8077 101.403C13.9992 71.9988 31.0064 45.9271 55.0195 27.4957C79.0326 9.06429 108.615 -0.624096 138.879 0.0311629C169.143 0.686421 198.278 11.6461 221.471 31.0996L136 133H269Z"
        fill="white" stroke="black" stroke-width="4" mask="url(#path-1-inside-1_479_768)" />
    <text fill="#CB2020" xml:space="preserve" style="white-space: pre" font-family="Inter" font-size="36"
        letter-spacing="0em">
        <tspan x="163.303" y="69.0909">r</tspan>
    </text>
    <text fill="#CB2020" xml:space="preserve" style="white-space: pre" font-family="Inter" font-size="36"
        letter-spacing="0em">
        <tspan x="197.303" y="163.091">r</tspan>
    </text>
    <path d="M136 131L220.5 31.5L239.5 53.5L255 78.5L263.5 104.5L268 133.5H133.5L136 131Z" fill="#F0DD31"
        stroke="#1371FF" stroke-width="2" />
    <path d="M134.328 132.005L221 30.4999" stroke="#F50808" stroke-width="2" />
    <line x1="138" y1="134" x2="269" y2="134" stroke="#F50808" stroke-width="2" />
    <circle cx="135" cy="133" r="5" fill="black" />
    <text fill="#1371FF" xml:space="preserve" style="white-space: pre" font-family="Inter" font-size="28"
        letter-spacing="0em">
        <tspan x="239.178" y="91.1818">l</tspan>
    </text>
    <text fill="black" xml:space="preserve" style="white-space: pre" font-family="Inter" font-size="18"
        letter-spacing="0em">
        <tspan x="151.234" y="127.545">α</tspan>
    </text>
    <text fill="black" xml:space="preserve" style="white-space: pre" font-family="Inter" font-size="18"
        letter-spacing="0em">
        <tspan x="109.665" y="141.545">β</tspan>
    </text>
</svg>