<svg width="298" height="246" viewBox="0 0 298 246" fill="none" xmlns="http://www.w3.org/2000/svg">
    <g filter="url(#filter0_d_470_737)">
        <path d="M289 196H291.099L289.777 194.37L173.777 51.37L172 49.1799V52L172 195V196H173L289 196Z" fill="white"
            stroke="black" stroke-width="2" />
        <path d="M27 48H170V196H27V48Z" fill="white" stroke="black" stroke-width="2" />
        <text fill="black" xml:space="preserve" style="white-space: pre" font-family="Inter" font-size="36"
            letter-spacing="0em">
            <tspan x="87.3203" y="35.0909">b</tspan>
        </text>
        <text fill="black" xml:space="preserve" style="white-space: pre" font-family="Inter" font-size="36"
            letter-spacing="0em">
            <tspan x="147.857" y="232.091">a</tspan>
        </text>
        <text fill="black" xml:space="preserve" style="white-space: pre" font-family="Inter" font-size="36"
            letter-spacing="0em">
            <tspan x="140.365" y="136.091">h</tspan>
        </text>
        <circle cx="35.5" cy="187.5" r="1.5" fill="black" />
        <path
            d="M37.4375 176.521C38.0178 176.521 38.5092 177.062 39.0793 177.143C39.5906 177.215 40.0633 177.623 40.5648 177.678C40.957 177.721 41.5105 178.042 41.8591 178.261C42.1513 178.445 42.3688 178.759 42.6714 178.908C42.9027 179.022 43.0787 179.302 43.3012 179.375"
            stroke="black" stroke-width="2" stroke-linecap="round" />
        <path
            d="M27 177.139C27.0527 176.724 28.8404 176.311 29.2404 176.19C30.1406 175.917 31.2524 176.019 32.1909 176.019C33.006 176.019 33.8212 176.019 34.6364 176.019C35.3752 176.019 36.1311 176.299 36.798 176.299"
            stroke="black" stroke-width="2" stroke-linecap="round" />
        <path
            d="M47.5225 185.469C47.5864 185.816 47.7996 186.117 47.8395 186.472C47.8797 186.828 47.9281 187.269 48.1088 187.59C48.246 187.834 48.2834 188.227 48.3043 188.495C48.3248 188.758 48.4606 188.951 48.4606 189.249"
            stroke="black" stroke-width="2" stroke-linecap="round" />
        <path
            d="M48.5469 189.954C48.5902 190.339 48.7834 190.725 48.8276 191.118C48.8461 191.282 48.9399 191.449 48.9399 191.616C48.9399 191.856 48.9399 192.096 48.9399 192.337C48.9399 193.33 48.8276 194.323 48.8276 195.328"
            stroke="black" stroke-width="2" stroke-linecap="round" />
        <path
            d="M43.6914 179.607C44.0112 179.67 44.6137 180.241 44.7903 180.502C45.1047 180.968 45.6137 181.297 45.9196 181.767C46.057 181.977 46.2043 182.033 46.3105 182.264C46.417 182.495 46.5487 182.729 46.6623 182.966C46.9324 183.531 47.1641 184.242 47.2878 184.852"
            stroke="black" stroke-width="2" stroke-linecap="round" />
        <circle cx="36.8342" cy="54.8343" r="1.5" transform="rotate(104.848 36.8342 54.8343)" fill="black" />
        <path
            d="M49.126 59.2473C48.9773 59.8083 48.3284 60.1446 48.1046 60.6751C47.9039 61.1509 47.3878 61.503 47.2062 61.9737C47.0641 62.3418 46.612 62.7946 46.3111 63.0755C46.0589 63.3109 45.6993 63.4406 45.4775 63.6947C45.3079 63.8891 44.9923 63.9875 44.8646 64.1838"
            stroke="black" stroke-width="2" stroke-linecap="round" />
        <path
            d="M51.2033 49C51.5916 49.1575 51.5322 50.9912 51.547 51.409C51.5805 52.3491 51.197 53.3977 50.9565 54.3048C50.7476 55.0927 50.5387 55.8807 50.3298 56.6686C50.1405 57.3828 49.676 58.0416 49.5051 58.6862"
            stroke="black" stroke-width="2" stroke-linecap="round" />
        <path
            d="M37.8926 66.7026C37.541 66.6755 37.1953 66.8045 36.842 66.7522C36.4873 66.6996 36.0484 66.6334 35.6919 66.7258C35.4211 66.796 35.0322 66.7315 34.7677 66.6831C34.5077 66.6354 34.2866 66.7173 33.9986 66.6409"
            stroke="black" stroke-width="2" stroke-linecap="round" />
        <path
            d="M33.2949 66.5436C32.9121 66.4869 32.489 66.5747 32.0984 66.5168C31.9347 66.4926 31.7499 66.5406 31.5877 66.4976C31.3557 66.4361 31.1236 66.3746 30.8916 66.3131C29.9309 66.0584 28.9998 65.6954 28.0286 65.4379"
            stroke="black" stroke-width="2" stroke-linecap="round" />
        <path
            d="M44.541 64.5018C44.3981 64.7948 43.6915 65.2308 43.3937 65.3345C42.8633 65.5192 42.4146 65.9268 41.8823 66.1022C41.6433 66.1809 41.5518 66.309 41.3016 66.3526C41.0508 66.3963 40.7907 66.4636 40.5321 66.5126C39.9175 66.629 39.1707 66.6708 38.5492 66.634"
            stroke="black" stroke-width="2" stroke-linecap="round" />
        <text fill="black" xml:space="preserve" style="white-space: pre" font-family="Inter" font-size="36"
            letter-spacing="0em">
            <tspan x="225.279" y="225.091">x</tspan>
        </text>
        <text fill="black" xml:space="preserve" style="white-space: pre" font-family="Inter" font-size="36"
            letter-spacing="0em">
            <tspan x="245.445" y="119.091">c</tspan>
        </text>
        <line x1="169.717" y1="49.6972" x2="27.7169" y2="195.697" stroke="#22A2CA" stroke-width="2"
            stroke-dasharray="4 4" />
        <text fill="black" xml:space="preserve" style="white-space: pre" font-family="Inter" font-size="36"
            letter-spacing="0em">
            <tspan x="67.3203" y="119.091">d</tspan>
        </text>
    </g>
    <text fill="black" xml:space="preserve" style="white-space: pre" font-family="Inter" font-size="36"
        letter-spacing="0em">
        <tspan x="0.365234" y="137.091">h</tspan>
    </text>
    <defs>
        <filter id="filter0_d_470_737" x="22" y="0" width="275.197" height="254" filterUnits="userSpaceOnUse"
            color-interpolation-filters="sRGB">
            <feFlood flood-opacity="0" result="BackgroundImageFix" />
            <feColorMatrix in="SourceAlpha" type="matrix" values="0 0 0 0 0 0 0 0 0 0 0 0 0 0 0 0 0 0 127 0"
                result="hardAlpha" />
            <feOffset dy="4" />
            <feGaussianBlur stdDeviation="2" />
            <feComposite in2="hardAlpha" operator="out" />
            <feColorMatrix type="matrix" values="0 0 0 0 0 0 0 0 0 0 0 0 0 0 0 0 0 0 0.25 0" />
            <feBlend mode="normal" in2="BackgroundImageFix" result="effect1_dropShadow_470_737" />
            <feBlend mode="normal" in="SourceGraphic" in2="effect1_dropShadow_470_737" result="shape" />
        </filter>
    </defs>
</svg>