<svg width="327" height="321" viewBox="0 0 327 321" fill="none" xmlns="http://www.w3.org/2000/svg">
    <text fill="black" xml:space="preserve" style="white-space: pre" font-family="Inter" font-size="36"
        letter-spacing="0em">
        <tspan x="179.82" y="35.0909">b</tspan>
    </text>
    <text fill="black" xml:space="preserve" style="white-space: pre" font-family="Inter" font-size="36"
        letter-spacing="0em">
        <tspan x="153.357" y="292.668">a</tspan>
    </text>
    <path
        d="M323 251.863H324.54L323.913 250.456L237.913 57.373L236 57.7954L239 250.879L239.015 251.863H240L323 251.863Z"
        fill="white" stroke="black" stroke-width="2" />
    <path d="M4 251.863H2.04887L3.1882 250.279L138.188 62.5978L140 60.079V63.1818L140 250.863V251.863H139L4 251.863Z"
        fill="white" stroke="black" stroke-width="2" />
    <mask id="path-5-inside-1_470_726" fill="white">
        <path d="M141 56.71H238V253.452H141V56.71Z" />
    </mask>
    <path d="M141 56.71H238V253.452H141V56.71Z" fill="white" />
    <path d="M141 58.71H238V54.71H141V58.71ZM238 251.452H141V255.452H238V251.452Z" fill="black"
        mask="url(#path-5-inside-1_470_726)" />
    <path d="M138.5 63.8289L141.5 59.2987H237.5L240 65.7705L241 250.863H138L138.5 63.8289Z" fill="white" />
    <line x1="142" y1="58.0043" x2="142" y2="250.863" stroke="black" stroke-width="2" />
    <text fill="black" xml:space="preserve" style="white-space: pre" font-family="Inter" font-size="36"
        letter-spacing="0em">
        <tspan x="147.365" y="172.051">h</tspan>
    </text>
    <path d="M238 56.71L238 253.055" stroke="black" stroke-width="2" />
</svg>