<svg width="531" height="324" viewBox="0 0 531 324" fill="none" xmlns="http://www.w3.org/2000/svg">
    <text fill="black" xml:space="preserve" style="white-space: pre" font-family="Inter" font-size="36"
        letter-spacing="0em">
        <tspan x="254.357" y="315.091">a</tspan>
    </text>
    <path d="M7.5451 282L263.504 16.4367L522.436 282H7.5451Z" fill="white" stroke="black" stroke-width="2" />
    <text fill="black" xml:space="preserve" style="white-space: pre" font-family="Inter" font-size="36"
        letter-spacing="0em">
        <tspan x="73" y="147.091">b</tspan>
    </text>
    <text fill="black" xml:space="preserve" style="white-space: pre" font-family="Inter" font-size="36"
        letter-spacing="0em">
        <tspan x="424" y="146.091">b</tspan>
    </text>
    <path
        d="M372 172.5C372 231.301 323.44 279 263.5 279C203.56 279 155 231.301 155 172.5C155 113.699 203.56 66 263.5 66C323.44 66 372 113.699 372 172.5Z"
        fill="white" stroke="black" stroke-width="2" />
    <text fill="black" xml:space="preserve" style="white-space: pre" font-family="Inter" font-size="24"
        letter-spacing="0em">
        <tspan x="198.035" y="134.227">r</tspan>
    </text>
    <text fill="#D20C0C" xml:space="preserve" style="white-space: pre" font-family="Inter" font-size="24"
        letter-spacing="0em">
        <tspan x="170.402" y="187.227">h(b)</tspan>
    </text>
    <text fill="#1B6B98" xml:space="preserve" style="white-space: pre" font-family="Inter" font-size="24"
        letter-spacing="0em">
        <tspan x="269.453" y="146.227">h(a)</tspan>
    </text>
    <path d="M263.454 18L260.81 282.07" stroke="#00BAF4" stroke-width="2" stroke-dasharray="4 4" />
    <rect x="248" y="33" width="30" height="30" fill="#D9D9D9" />
    <text fill="black" xml:space="preserve" style="white-space: pre" font-family="Inter" font-size="18"
        letter-spacing="0em">
        <tspan x="257.234" y="51.5455">α</tspan>
    </text>
    <path d="M10.3942 280.183L369.853 127.123" stroke="#D20C0C" stroke-width="2" stroke-dasharray="4 4" />
    <rect x="38" y="251" width="30" height="30" fill="#D9D9D9" />
    <text fill="black" xml:space="preserve" style="white-space: pre" font-family="Inter" font-size="18"
        letter-spacing="0em">
        <tspan x="46.165" y="270.545">β</tspan>
    </text>
    <path d="M522.964 282.293L159.596 127.608" stroke="#4FF714" stroke-width="2" stroke-dasharray="4 4" />
    <circle cx="263" cy="172" r="7" fill="black" />
    <text fill="#14F22A" xml:space="preserve" style="white-space: pre" font-family="Inter" font-size="24"
        letter-spacing="0em">
        <tspan x="304.402" y="233.227">h(b)</tspan>
    </text>
    <rect x="458" y="249" width="30" height="30" fill="#D9D9D9" />
    <text fill="black" xml:space="preserve" style="white-space: pre" font-family="Inter" font-size="18"
        letter-spacing="0em">
        <tspan x="468.165" y="269.545">β</tspan>
    </text>
</svg>